<?xml version="1.0" encoding="UTF-8"?>
<svg id="Ebene_2" data-name="Ebene 2" xmlns="http://www.w3.org/2000/svg" viewBox="0 0 172.33 172.23">
  <defs>
    <style>
      .cls-1 {
        fill: #22d3ee;
      }
    </style>
  </defs>
  <g id="Ebene_1-2" data-name="Ebene 1">
    <g>
      <path class="cls-1" d="M86.17,77c-5.05,0-9.17,4.11-9.17,9.17s4.11,9.17,9.17,9.17,9.17-4.11,9.17-9.17-4.11-9.17-9.17-9.17Z"/>
      <path class="cls-1" d="M86.17,61c-13.88,0-25.17,11.29-25.17,25.17s11.29,25.17,25.17,25.17,25.17-11.29,25.17-25.17-11.29-25.17-25.17-25.17ZM86.17,102.33c-8.91,0-16.17-7.25-16.17-16.17s7.25-16.17,16.17-16.17,16.17,7.25,16.17,16.17-7.25,16.17-16.17,16.17Z"/>
      <path class="cls-1" d="M38.55,39.88c14.56,0,27.78,6.04,37.17,15.87,0,0,0,0,0,0,3.28-1.13,6.79-1.75,10.45-1.75,17.34,0,31.51,13.79,32.14,30.98,10.53-3.13,19.88-10.14,25.77-20.33l14.54-25.11C143.28,15.76,116.57,0,86.17,0S28.77,15.93,13.48,39.92l24.99-.04h.08Z"/>
      <path class="cls-1" d="M64.95,110.31c-6.71-5.9-10.95-14.53-10.95-24.15,0-11.44,6.01-21.49,15.02-27.2,0,0,0,0,0,0-7.98-7.52-18.72-12.09-30.47-12.09h-.07l-29.02.05C3.43,58.7,0,72.03,0,86.17c0,46.22,36.39,83.93,82.07,86.06l-12.43-21.7c-7.25-12.66-8.57-27.16-4.69-40.21Z"/>
      <path class="cls-1" d="M162.66,46.52l-12.53,21.64c-7.3,12.62-19.18,21.02-32.41,24.22,0,0,0,0,0,0-2.9,14.77-15.95,25.96-31.56,25.96-5.46,0-10.6-1.37-15.11-3.78,0,0,0,0,0,0-2.58,10.67-1.2,22.28,4.65,32.49l14.43,25.18c45.74-2.08,82.19-39.81,82.19-86.07,0-14.3-3.5-27.78-9.67-39.65Z"/>
    </g>
  </g>
</svg>
