<?xml version="1.0" encoding="UTF-8"?>
<svg id="Ebene_2" data-name="Ebene 2" xmlns="http://www.w3.org/2000/svg" viewBox="0 0 202.67 202.67">
  <g id="Ebene_1-2" data-name="Ebene 1">
    <g>
      <path d="M101.33,24.06c-42.61,0-77.28,34.67-77.28,77.28s34.67,77.28,77.28,77.28,77.28-34.67,77.28-77.28S143.94,24.06,101.33,24.06ZM101.33,176.61c-41.51,0-75.28-33.77-75.28-75.28S59.83,26.06,101.33,26.06s75.28,33.77,75.28,75.28-33.77,75.28-75.28,75.28Z"/>
      <path d="M101.33,50.98c-27.77,0-50.36,22.59-50.36,50.36s22.59,50.36,50.36,50.36,50.36-22.59,50.36-50.36-22.59-50.36-50.36-50.36ZM101.33,149.69c-26.66,0-48.36-21.69-48.36-48.36s21.69-48.36,48.36-48.36,48.36,21.69,48.36,48.36-21.69,48.36-48.36,48.36Z"/>
      <path d="M101.33,0C45.46,0,0,45.46,0,101.33s45.46,101.33,101.33,101.33,101.33-45.46,101.33-101.33S157.21,0,101.33,0ZM101.33,200.67c-54.77,0-99.33-44.56-99.33-99.33S46.56,2,101.33,2s99.33,44.56,99.33,99.33-44.56,99.33-99.33,99.33Z"/>
    </g>
  </g>
</svg>